<?xml version="1.0" encoding="UTF-8" standalone="no"?>
<!-- Created with Inkscape (http://www.inkscape.org/) -->

<svg
   width="4.2829146mm"
   height="4.5096693mm"
   viewBox="0 0 4.2829146 4.5096694"
   version="1.1"
   id="svg5"
   xml:space="preserve"
   xmlns:xlink="http://www.w3.org/1999/xlink"
   xmlns="http://www.w3.org/2000/svg"
   xmlns:svg="http://www.w3.org/2000/svg"><defs
     id="defs2"><linearGradient
       id="swatch354"><stop
         style="stop-color:#000000;stop-opacity:1;"
         offset="0"
         id="stop354" /></linearGradient><linearGradient
       id="swatch353"><stop
         style="stop-color:#11735a;stop-opacity:1;"
         offset="0"
         id="stop353" /></linearGradient><linearGradient
       id="swatch352"><stop
         style="stop-color:#11735a;stop-opacity:1;"
         offset="0"
         id="stop352" /></linearGradient><linearGradient
       id="swatch351"><stop
         style="stop-color:#11735a;stop-opacity:1;"
         offset="0"
         id="stop351" /></linearGradient><linearGradient
       id="swatch328"><stop
         style="stop-color:#9f3552;stop-opacity:1;"
         offset="0"
         id="stop328" /></linearGradient><linearGradient
       id="swatch327"><stop
         style="stop-color:#000000;stop-opacity:1;"
         offset="0"
         id="stop327" /></linearGradient><linearGradient
       id="swatch300"><stop
         style="stop-color:#346646;stop-opacity:1;"
         offset="0"
         id="stop300" /></linearGradient><linearGradient
       id="swatch289"><stop
         style="stop-color:#000000;stop-opacity:1;"
         offset="0"
         id="stop289" /></linearGradient><linearGradient
       id="swatch277"><stop
         style="stop-color:#346646;stop-opacity:1;"
         offset="0"
         id="stop277" /></linearGradient><linearGradient
       id="swatch264"><stop
         style="stop-color:#346646;stop-opacity:1;"
         offset="0"
         id="stop264" /></linearGradient><linearGradient
       id="swatch256"><stop
         style="stop-color:#848484;stop-opacity:1;"
         offset="0"
         id="stop256" /></linearGradient><linearGradient
       id="swatch255"><stop
         style="stop-color:#848484;stop-opacity:1;"
         offset="0"
         id="stop255" /></linearGradient><linearGradient
       id="swatch254"><stop
         style="stop-color:#9ea7a8;stop-opacity:1;"
         offset="0"
         id="stop254" /></linearGradient><linearGradient
       id="swatch253"><stop
         style="stop-color:#346646;stop-opacity:1;"
         offset="0"
         id="stop253" /></linearGradient><linearGradient
       id="swatch241"><stop
         style="stop-color:#11735a;stop-opacity:1;"
         offset="0"
         id="stop241" /></linearGradient><linearGradient
       id="swatch209"><stop
         style="stop-color:#3f57a3;stop-opacity:1;"
         offset="0"
         id="stop209" /></linearGradient><linearGradient
       id="swatch137"><stop
         style="stop-color:#000000;stop-opacity:1;"
         offset="0"
         id="stop137" /></linearGradient><linearGradient
       id="swatch33"><stop
         style="stop-color:#000000;stop-opacity:1;"
         offset="0"
         id="stop33" /></linearGradient><linearGradient
       id="swatch24"><stop
         style="stop-color:#000000;stop-opacity:1;"
         offset="0"
         id="stop24" /></linearGradient><linearGradient
       id="swatch23"><stop
         style="stop-color:#ffffff;stop-opacity:1;"
         offset="0"
         id="stop23" /></linearGradient><linearGradient
       id="swatch20"><stop
         style="stop-color:#000000;stop-opacity:1;"
         offset="0"
         id="stop20" /></linearGradient><linearGradient
       id="swatch19"><stop
         style="stop-color:#9f3552;stop-opacity:1;"
         offset="0"
         id="stop19" /></linearGradient><linearGradient
       id="swatch18"><stop
         style="stop-color:#ffffff;stop-opacity:1;"
         offset="0"
         id="stop18" /></linearGradient><linearGradient
       id="swatch4"><stop
         style="stop-color:#000000;stop-opacity:1;"
         offset="0"
         id="stop4" /></linearGradient><linearGradient
       id="swatch449"><stop
         style="stop-color:#edfbfd;stop-opacity:1;"
         offset="0"
         id="stop449" /></linearGradient><linearGradient
       id="swatch426"><stop
         style="stop-color:#9ea7a8;stop-opacity:1;"
         offset="0"
         id="stop426" /></linearGradient><linearGradient
       id="swatch425"><stop
         style="stop-color:#9f3552;stop-opacity:1;"
         offset="0"
         id="stop425" /></linearGradient><linearGradient
       id="swatch263"><stop
         style="stop-color:#030303;stop-opacity:1;"
         offset="0"
         id="stop263" /></linearGradient><linearGradient
       id="swatch262"><stop
         style="stop-color:#edfbfd;stop-opacity:1;"
         offset="0"
         id="stop262" /></linearGradient><linearGradient
       id="swatch15"><stop
         style="stop-color:#2d5e5e;stop-opacity:1;"
         offset="0"
         id="stop15" /></linearGradient><linearGradient
       id="swatch14"><stop
         style="stop-color:#7ab0b0;stop-opacity:1;"
         offset="0"
         id="stop14" /></linearGradient><linearGradient
       id="swatch13"><stop
         style="stop-color:#88ac40;stop-opacity:1;"
         offset="0"
         id="stop13" /></linearGradient><linearGradient
       xlink:href="#swatch209"
       id="linearGradient349"
       gradientUnits="userSpaceOnUse"
       gradientTransform="matrix(1.0999927,0,0,1.0999927,-0.67626451,-7.0027392)"
       x1="47.137291"
       y1="71.415276"
       x2="50.71608"
       y2="71.415276" /><linearGradient
       xlink:href="#swatch209"
       id="linearGradient350"
       gradientUnits="userSpaceOnUse"
       gradientTransform="matrix(0.72492943,-0.19642472,0.18191127,0.97221328,21.179053,7.9772103)"
       x1="23.983818"
       y1="70.347122"
       x2="28.924053"
       y2="70.347122" /></defs><g
     id="layer2"
     transform="translate(-42.258544,-49.477117)"><g
       id="g64"
       transform="translate(0,-15.934981)"><g
         id="g491"
         transform="translate(-8.8321834,-3.8317916)"><g
           id="g417"><path
             style="display:inline;fill:url(#linearGradient349);stroke-width:0.0219999;stroke-dasharray:none"
             d="m 53.210012,69.353546 -0.05858,1.66e-4 c -0.07021,1.66e-4 -0.09802,0.0086 -0.174445,0.05241 -0.0297,0.01705 -0.156819,0.08826 -0.28247,0.158244 -0.125652,0.06998 -0.246911,0.138523 -0.269463,0.152317 -0.0442,0.02703 -0.10868,0.06416 -0.483278,0.278261 -0.304284,0.173914 -0.396102,0.225947 -0.506707,0.287186 -0.113796,0.06301 -0.165406,0.09872 -0.205999,0.142569 -0.06055,0.0654 -0.05439,-0.0618 -0.05455,1.127621 -8.3e-5,0.959028 6.62e-4,1.046428 0.0096,1.065131 0.01574,0.03317 0.09196,0.109306 0.14751,0.147352 0.02843,0.01948 0.100265,0.06099 0.159617,0.09226 0.05934,0.03126 0.215979,0.118801 0.348075,0.194522 0.554985,0.318137 1.150037,0.656814 1.18476,0.67431 0.0137,0.0069 0.03874,0.01645 0.05565,0.0212 0.02174,0.0062 0.0461,0.0077 0.0831,0.0055 0.0497,-0.003 0.05521,-0.0048 0.108372,-0.03434 0.03081,-0.01713 0.08633,-0.0478 0.123382,-0.06818 0.0785,-0.04315 0.414826,-0.233625 0.521352,-0.295252 0.04027,-0.0233 0.114082,-0.06551 0.164022,-0.09382 0.04993,-0.02831 0.135609,-0.07723 0.19038,-0.108724 0.182091,-0.104696 0.576097,-0.327872 0.659162,-0.373371 0.06932,-0.03798 0.08783,-0.054 0.136243,-0.117959 l 0.04533,-0.0599 -0.0016,-1.043781 -0.0016,-1.043781 -0.01633,-0.03487 c -0.02681,-0.05726 -0.09014,-0.113609 -0.191984,-0.170807 -0.133366,-0.07491 -0.282111,-0.159351 -0.547358,-0.310766 -0.135318,-0.07724 -0.292162,-0.166452 -0.348545,-0.198242 -0.05639,-0.03179 -0.168414,-0.09516 -0.24896,-0.140807 -0.159709,-0.0905 -0.356482,-0.200702 -0.471561,-0.264063 z"
             id="path137-32-9" /><path
             style="fill:url(#linearGradient350);stroke:#ffffff;stroke-width:0.5;stroke-linecap:butt;stroke-dasharray:none;stroke-opacity:1;paint-order:stroke fill markers"
             d="m 53.387318,72.867149 c -0.565813,0.112793 -1.063223,0.09566 -1.457719,-0.05021 -0.128453,-0.0475 -0.283481,-0.126316 -0.35854,-0.182284 l -0.03005,-0.02241 0.01385,-0.0082 c 0.0076,-0.0045 0.04328,-0.01655 0.07922,-0.02679 0.250703,-0.07115 0.483662,-0.228626 0.773523,-0.523009 l 0.07263,-0.07376 0.03514,0.0058 c 0.123093,0.02036 0.280385,0.03435 0.351559,0.03125 0.04773,-0.0022 0.19263,-0.03428 0.191096,-0.04249 -6.56e-4,-0.0036 -0.0227,-0.01111 -0.04896,-0.01671 -0.06438,-0.01373 -0.210574,-0.06273 -0.26392,-0.08847 -0.07191,-0.0347 -0.152453,-0.08592 -0.208694,-0.132731 l -0.0532,-0.04427 0.03265,-0.463635 c 0.01796,-0.255 0.03467,-0.474759 0.03714,-0.488354 0.0055,-0.03031 0.01994,-0.05142 0.111682,-0.163224 0.03965,-0.04833 0.07643,-0.09472 0.08173,-0.103099 l 0.0096,-0.01524 -0.01923,0.0093 c -0.01056,0.0052 -0.04727,0.02309 -0.08157,0.03996 -0.04134,0.0204 -0.08836,0.03778 -0.139608,0.05171 -0.155759,0.04235 -0.269881,0.116071 -0.606952,0.392058 -0.02591,0.02124 -0.04859,0.03736 -0.05036,0.03584 -0.0087,-0.0074 0.07067,-0.267458 0.119266,-0.390568 0.04355,-0.110323 0.131134,-0.26991 0.220915,-0.402516 0.04204,-0.06211 0.42086,-0.517381 0.500338,-0.601328 0.03797,-0.04011 0.09364,-0.07767 0.141856,-0.09569 0.04537,-0.01696 0.08652,-0.01041 0.122654,0.01954 0.05111,0.04235 0.259809,0.350759 0.320004,0.472876 0.01512,0.03066 0.04534,0.09994 0.06715,0.153911 0.03808,0.09424 0.04039,0.102134 0.05819,0.19849 0.0102,0.0552 0.03251,0.214039 0.04955,0.353003 0.01704,0.138963 0.03258,0.261015 0.03448,0.271236 0.0028,0.01481 0.01077,-0.0076 0.03937,-0.110151 0.01974,-0.07081 0.04056,-0.141063 0.04629,-0.156137 l 0.0104,-0.0274 0.03956,0.06656 c 0.0557,0.0937 0.299413,0.512873 0.395189,0.679701 l 0.08027,0.139822 0.07356,0.02629 c 0.255987,0.09147 0.485791,0.115959 0.806485,0.08596 0.125501,-0.01173 0.141705,-0.01252 0.142769,-0.0068 0.0013,0.0067 -0.09591,0.158477 -0.137825,0.215222 -0.275218,0.37262 -0.672343,0.669052 -1.140657,0.851436 -0.110643,0.04309 -0.349475,0.11333 -0.460847,0.135534 z"
             id="path27-1" /></g></g></g></g></svg>
