<?xml version="1.0" encoding="UTF-8" standalone="no"?>
<!-- Created with Inkscape (http://www.inkscape.org/) -->

<svg
   width="6.4799056mm"
   height="6.4799066mm"
   viewBox="0 0 6.4799056 6.4799067"
   version="1.1"
   id="svg5"
   xml:space="preserve"
   sodipodi:docname="icon-d6.svg"
   inkscape:version="1.4.1 (1:1.4.1+202503302257+93de688d07)"
   xmlns:inkscape="http://www.inkscape.org/namespaces/inkscape"
   xmlns:sodipodi="http://sodipodi.sourceforge.net/DTD/sodipodi-0.dtd"
   xmlns="http://www.w3.org/2000/svg"
   xmlns:svg="http://www.w3.org/2000/svg"><sodipodi:namedview
     id="namedview1"
     pagecolor="#ffffff"
     bordercolor="#111111"
     borderopacity="1"
     inkscape:showpageshadow="0"
     inkscape:pageopacity="0"
     inkscape:pagecheckerboard="1"
     inkscape:deskcolor="#d1d1d1"
     inkscape:document-units="mm"
     inkscape:zoom="30.501023"
     inkscape:cx="6.3112637"
     inkscape:cy="10.147201"
     inkscape:window-width="3374"
     inkscape:window-height="1371"
     inkscape:window-x="66"
     inkscape:window-y="32"
     inkscape:window-maximized="1"
     inkscape:current-layer="g1" /><defs
     id="defs2"><linearGradient
       id="swatch171"><stop
         style="stop-color:#39898a;stop-opacity:1;"
         offset="0"
         id="stop171" /></linearGradient><linearGradient
       id="swatch168"><stop
         style="stop-color:#000000;stop-opacity:1;"
         offset="0"
         id="stop168" /></linearGradient><linearGradient
       id="swatch453"><stop
         style="stop-color:#000000;stop-opacity:1;"
         offset="0"
         id="stop453" /></linearGradient><linearGradient
       id="swatch354"><stop
         style="stop-color:#000000;stop-opacity:1;"
         offset="0"
         id="stop354" /></linearGradient><linearGradient
       id="swatch353"><stop
         style="stop-color:#11735a;stop-opacity:1;"
         offset="0"
         id="stop353" /></linearGradient><linearGradient
       id="swatch352"><stop
         style="stop-color:#11735a;stop-opacity:1;"
         offset="0"
         id="stop352" /></linearGradient><linearGradient
       id="swatch351"><stop
         style="stop-color:#11735a;stop-opacity:1;"
         offset="0"
         id="stop351" /></linearGradient><linearGradient
       id="swatch328"><stop
         style="stop-color:#8c3a8b;stop-opacity:1;"
         offset="0"
         id="stop328" /></linearGradient><linearGradient
       id="swatch327"><stop
         style="stop-color:#000000;stop-opacity:1;"
         offset="0"
         id="stop327" /></linearGradient><linearGradient
       id="swatch300"><stop
         style="stop-color:#346646;stop-opacity:1;"
         offset="0"
         id="stop300" /></linearGradient><linearGradient
       id="swatch289"><stop
         style="stop-color:#000000;stop-opacity:1;"
         offset="0"
         id="stop289" /></linearGradient><linearGradient
       id="swatch277"><stop
         style="stop-color:#346646;stop-opacity:1;"
         offset="0"
         id="stop277" /></linearGradient><linearGradient
       id="swatch264"><stop
         style="stop-color:#346646;stop-opacity:1;"
         offset="0"
         id="stop264" /></linearGradient><linearGradient
       id="swatch256"><stop
         style="stop-color:#848484;stop-opacity:1;"
         offset="0"
         id="stop256" /></linearGradient><linearGradient
       id="swatch255"><stop
         style="stop-color:#848484;stop-opacity:1;"
         offset="0"
         id="stop255" /></linearGradient><linearGradient
       id="swatch254"><stop
         style="stop-color:#9ea7a8;stop-opacity:1;"
         offset="0"
         id="stop254" /></linearGradient><linearGradient
       id="swatch253"><stop
         style="stop-color:#346646;stop-opacity:1;"
         offset="0"
         id="stop253" /></linearGradient><linearGradient
       id="swatch241"><stop
         style="stop-color:#11735a;stop-opacity:1;"
         offset="0"
         id="stop241" /></linearGradient><linearGradient
       id="swatch209"><stop
         style="stop-color:#3f57a3;stop-opacity:1;"
         offset="0"
         id="stop209" /></linearGradient><linearGradient
       id="swatch137"><stop
         style="stop-color:#000000;stop-opacity:1;"
         offset="0"
         id="stop137" /></linearGradient><linearGradient
       id="swatch33"><stop
         style="stop-color:#000000;stop-opacity:1;"
         offset="0"
         id="stop33" /></linearGradient><linearGradient
       id="swatch24"><stop
         style="stop-color:#000000;stop-opacity:1;"
         offset="0"
         id="stop24" /></linearGradient><linearGradient
       id="swatch23"><stop
         style="stop-color:#ffffff;stop-opacity:1;"
         offset="0"
         id="stop23" /></linearGradient><linearGradient
       id="swatch20"><stop
         style="stop-color:#000000;stop-opacity:1;"
         offset="0"
         id="stop20" /></linearGradient><linearGradient
       id="swatch19"><stop
         style="stop-color:#9f3552;stop-opacity:1;"
         offset="0"
         id="stop19" /></linearGradient><linearGradient
       id="swatch18"><stop
         style="stop-color:#ffffff;stop-opacity:1;"
         offset="0"
         id="stop18" /></linearGradient><linearGradient
       id="swatch4"><stop
         style="stop-color:#000000;stop-opacity:1;"
         offset="0"
         id="stop4" /></linearGradient><linearGradient
       id="swatch449"><stop
         style="stop-color:#edfbfd;stop-opacity:1;"
         offset="0"
         id="stop449" /></linearGradient><linearGradient
       id="swatch426"><stop
         style="stop-color:#9ea7a8;stop-opacity:1;"
         offset="0"
         id="stop426" /></linearGradient><linearGradient
       id="swatch425"><stop
         style="stop-color:#9f3552;stop-opacity:1;"
         offset="0"
         id="stop425" /></linearGradient><linearGradient
       id="swatch263"><stop
         style="stop-color:#030303;stop-opacity:1;"
         offset="0"
         id="stop263" /></linearGradient><linearGradient
       id="swatch262"><stop
         style="stop-color:#edfbfd;stop-opacity:1;"
         offset="0"
         id="stop262" /></linearGradient><linearGradient
       id="swatch15"><stop
         style="stop-color:#2d5e5e;stop-opacity:1;"
         offset="0"
         id="stop15" /></linearGradient><linearGradient
       id="swatch14"><stop
         style="stop-color:#7ab0b0;stop-opacity:1;"
         offset="0"
         id="stop14" /></linearGradient><linearGradient
       id="swatch13"><stop
         style="stop-color:#88ac40;stop-opacity:1;"
         offset="0"
         id="stop13" /></linearGradient></defs><g
     id="g6"
     transform="matrix(0.05125445,0,0,0.05125445,-0.01949837,-0.05032614)"><g
       id="g1"
       inkscape:label="dots"
       style="fill:#c2b846;fill-opacity:1"><path
         id="path6"
         style="fill:#ffffff;fill-opacity:1"
         d="M 63.183262 4.2082341 C 60.973262 4.2082341 58.679335 4.5072905 56.579335 5.3172905 C 52.059335 7.0672905 23.385661 20.344289 20.615661 22.094289 C 20.265661 22.314289 19.917181 22.550052 19.577181 22.800052 L 19.577181 22.810135 L 19.567099 22.810135 L 19.557016 22.810135 L 19.557016 22.820217 L 19.546934 22.820217 L 19.536852 22.820217 L 19.536852 22.830299 L 19.526769 22.830299 C 19.286769 22.980299 19.061582 23.123757 18.891582 23.253757 C 15.601582 25.633757 11.604768 28.660983 9.4847677 32.710983 C 7.4547677 36.580983 6.6403155 39.537228 6.4903155 44.497228 L 6.4903155 44.910604 C 6.4803155 44.970604 6.4802331 45.032086 6.4802331 45.092086 C 6.3302331 50.262086 6.6421267 81.816925 6.7121267 86.096925 C 6.7821267 90.816925 7.937776 96.070333 11.077776 98.760333 C 14.217776 101.45033 39.647783 117.58422 45.367783 120.05422 C 45.837783 120.25422 46.299227 120.4285 46.769227 120.5785 L 46.859968 120.60874 C 47.389968 120.82874 47.953553 121.06418 48.523553 121.27418 C 49.213553 121.53418 49.921007 121.79035 50.661007 122.03035 C 51.021007 122.15035 51.390063 122.27323 51.770063 122.38323 C 52.000063 122.45323 52.235909 122.52496 52.485909 122.59496 C 52.705909 122.66496 52.931425 122.71644 53.161425 122.77644 C 55.461425 123.39644 57.993091 123.87707 60.713091 124.07707 C 61.133091 124.10707 61.563629 124.13764 62.003629 124.14764 C 62.473629 124.16764 62.945238 124.17789 63.425238 124.17789 C 63.655238 124.17789 63.890919 124.16781 64.120919 124.16781 C 72.140919 124.01781 77.414542 121.55454 80.484542 120.09454 L 80.494624 120.08446 L 80.494624 120.07438 L 80.504706 120.07438 L 80.514789 120.07438 L 80.595447 120.04413 C 80.985447 119.87413 81.385162 119.70993 81.785162 119.52993 L 82.843807 119.04598 C 82.963807 118.98598 83.086853 118.93458 83.216853 118.87458 C 83.586853 118.69458 83.966157 118.49989 84.356157 118.29989 C 84.396157 118.27989 84.437227 118.25931 84.487227 118.22931 C 85.367227 117.77931 86.269127 117.29762 87.169127 116.79762 L 87.44135 116.64639 C 87.96135 116.35639 88.474029 116.05914 88.994029 115.75914 C 89.254029 115.60914 89.500286 115.45536 89.760286 115.29536 C 90.280286 114.99536 90.792883 114.68786 91.302883 114.37786 C 94.882883 112.19786 98.334298 109.92715 101.27431 108.16715 C 107.99431 104.13715 113.23105 100.72066 115.57105 98.800662 C 118.57105 96.350662 120.60304 90.42108 120.71304 85.38108 C 120.80304 81.15108 120.71238 57.830287 120.63238 49.770287 L 120.63238 49.649299 C 120.66238 47.469299 120.66205 45.504758 120.59205 44.194758 C 120.40205 40.574758 119.65892 37.681769 117.75892 34.031769 C 117.63892 33.801769 117.51587 33.57617 117.38587 33.34617 C 117.14587 32.91617 116.88962 32.485714 116.61962 32.065714 C 116.60962 32.045714 116.58929 32.015138 116.57929 31.995138 C 116.34929 31.645138 116.12361 31.296576 115.88361 30.946576 C 115.52361 30.426576 115.15455 29.934391 114.77455 29.454391 C 114.62455 29.254391 114.46068 29.049533 114.30068 28.859533 C 114.14068 28.669533 113.98681 28.484923 113.82681 28.294923 C 113.27681 27.644923 112.7438 27.040432 112.2338 26.520432 C 112.0938 26.370432 111.95043 26.237057 111.82043 26.107057 C 111.55043 25.847057 111.30425 25.611294 111.06425 25.401294 L 111.05417 25.391211 L 111.05417 25.381129 C 110.70417 25.001129 110.29421 24.632155 109.83421 24.282155 C 103.99421 19.912155 77.878018 7.800913 72.338018 5.760913 C 70.548018 5.100913 66.993262 4.2082341 63.183262 4.2082341 z M 64.292318 19.341813 A 13.81 9.9300003 0 0 1 78.095029 29.272909 A 13.81 9.9300003 0 0 1 64.292318 39.204004 A 13.81 9.9300003 0 0 1 50.479525 29.272909 A 13.81 9.9300003 0 0 1 64.292318 19.341813 z M 17.732114 48.298267 C 21.222134 48.101802 24.91866 51.154963 26.49366 55.547463 C 28.29366 60.567463 27.752501 65.772226 23.902501 67.152226 C 20.052501 68.532226 15.438935 65.095335 13.668935 60.185335 C 11.858935 55.165335 12.310094 49.960655 16.260094 48.590655 C 16.743844 48.424405 17.23354 48.326333 17.732114 48.298267 z M 109.45108 49.155265 C 110.43795 49.126984 111.37597 49.335534 112.19347 49.800534 C 115.45347 51.670534 115.91171 57.018261 113.20171 61.768261 C 110.49171 66.508261 105.22991 68.820661 101.95991 66.960661 C 98.689886 65.100661 98.332434 59.732935 101.04241 54.992935 C 103.07491 51.430435 106.49045 49.240109 109.45108 49.155265 z M 96.858247 70.539889 C 97.885747 70.535826 98.8513 70.760652 99.6813 71.245652 C 103.0013 73.185652 103.39863 78.675684 100.57863 83.495684 C 97.758615 88.325684 92.364441 90.638167 89.044441 88.698167 C 85.734441 86.758167 85.206125 81.116735 88.026125 76.276735 C 90.141125 72.661735 93.775747 70.552076 96.858247 70.539889 z M 43.290823 93.013404 C 46.561548 92.986109 50.081725 95.632166 51.820475 99.597166 C 53.960475 104.47717 53.836396 110.25761 50.096396 111.89761 C 46.356396 113.53761 41.287232 110.13418 39.177232 105.35418 C 37.027232 100.47418 37.352875 95.117192 41.092875 93.477192 C 41.796 93.169692 42.53604 93.019703 43.290823 93.013404 z M 83.519323 93.225133 C 84.760913 93.170946 85.934108 93.459549 86.937233 94.072049 C 90.147233 96.032049 90.452667 101.39994 87.602667 106.05994 C 84.752667 110.71994 79.419633 112.87962 76.209633 110.91962 C 72.999633 108.95962 72.563706 103.28967 75.483706 98.679674 C 77.738706 95.111549 80.787827 93.344345 83.519323 93.225133 z " /></g></g></svg>
