<?xml version="1.0" encoding="UTF-8" standalone="no"?>
<!-- Created with Inkscape (http://www.inkscape.org/) -->

<svg
   width="5.0401721mm"
   height="5.0370674mm"
   viewBox="0 0 5.0401721 5.0370675"
   version="1.1"
   id="svg5"
   xml:space="preserve"
   xmlns:xlink="http://www.w3.org/1999/xlink"
   xmlns="http://www.w3.org/2000/svg"
   xmlns:svg="http://www.w3.org/2000/svg"><defs
     id="defs2"><linearGradient
       id="swatch449"><stop
         style="stop-color:#edfbfd;stop-opacity:1;"
         offset="0"
         id="stop449" /></linearGradient><linearGradient
       id="swatch426"><stop
         style="stop-color:#9ea7a8;stop-opacity:1;"
         offset="0"
         id="stop426" /></linearGradient><linearGradient
       id="swatch425"><stop
         style="stop-color:#9f3552;stop-opacity:1;"
         offset="0"
         id="stop425" /></linearGradient><linearGradient
       id="swatch263"><stop
         style="stop-color:#030303;stop-opacity:1;"
         offset="0"
         id="stop263" /></linearGradient><linearGradient
       id="swatch262"><stop
         style="stop-color:#edfbfd;stop-opacity:1;"
         offset="0"
         id="stop262" /></linearGradient><linearGradient
       id="swatch15"><stop
         style="stop-color:#2d5e5e;stop-opacity:1;"
         offset="0"
         id="stop15" /></linearGradient><linearGradient
       id="swatch14"><stop
         style="stop-color:#7ab0b0;stop-opacity:1;"
         offset="0"
         id="stop14" /></linearGradient><linearGradient
       id="swatch13"><stop
         style="stop-color:#88ac40;stop-opacity:1;"
         offset="0"
         id="stop13" /></linearGradient><linearGradient
       xlink:href="#swatch425"
       id="linearGradient426"
       x1="27.74177"
       y1="63.340115"
       x2="36.87289"
       y2="63.340115"
       gradientUnits="userSpaceOnUse" /></defs><g
     id="layer2"
     transform="translate(-15.330542,-43.686797)"><g
       id="g64"
       transform="translate(0,-15.934981)"><g
         id="g491"
         transform="translate(-8.8321834,-3.8317916)"><g
           id="g426"
           transform="matrix(0.49524581,0,0,0.49524581,10.726479,34.877426)"
           style="stroke-width:0.90864;stroke-dasharray:none"><path
             id="path425"
             style="fill:url(#linearGradient426);stroke-width:0.90864;stroke-linecap:square;stroke-linejoin:round;stroke-dasharray:none;paint-order:stroke fill markers"
             transform="rotate(42.634534,32.98274,62.831631)"
             d="m 35.659979,59.672425 c 0.160204,0.168511 -0.503361,2.050487 -0.383715,2.240891 0.119646,0.190404 1.576213,0.804157 1.59646,1.04869 0.02025,0.244532 -1.190733,1.229677 -1.272935,1.452211 -0.0822,0.222534 1.121026,1.025294 0.979855,1.218473 -0.141172,0.193178 -1.780295,0.481388 -1.975974,0.596067 -0.195678,0.114679 -0.415902,1.210033 -0.639481,1.246934 -0.223578,0.0369 -1.132775,-1.081137 -1.375581,-1.111116 -0.242807,-0.02998 -2.028301,1.300783 -2.221586,1.183892 -0.193285,-0.116892 -0.20911,-1.18878 -0.402743,-1.332997 -0.193634,-0.144217 -2.098609,-0.76327 -2.217709,-0.959854 -0.119101,-0.196584 1.649358,-0.993159 1.59691,-1.214731 -0.05245,-0.221572 -1.649811,-1.810592 -1.582215,-2.04504 0.06759,-0.234449 2.003821,-0.131982 2.119103,-0.337681 0.115281,-0.205699 -0.687186,-1.777952 -0.491629,-1.904307 0.195557,-0.126355 2.13301,0.773931 2.355956,0.710213 0.222945,-0.06372 0.486671,-1.674336 0.716695,-1.695305 0.230023,-0.02097 1.043769,1.970864 1.263712,2.049202 0.219943,0.07834 1.774673,-1.314053 1.934877,-1.145542 z" /><path
             style="display:inline;fill:#9f3552;fill-opacity:1;stroke:#ffffff;stroke-width:1.11056;stroke-dasharray:none;stroke-opacity:1;paint-order:stroke fill markers"
             d="m 32.731271,65.367201 c -0.297228,0.144918 -0.631061,0.190857 -0.800109,0.110108 -0.179454,-0.08572 -0.860003,-0.480412 -1.011748,-0.586772 -0.05312,-0.03723 -0.04784,-0.04045 -0.105071,0.06419 -0.06414,0.117268 -0.155424,0.221738 -0.463391,0.530401 -0.369084,0.370244 -0.684112,0.705424 -0.765723,0.815494 -0.328174,0.442623 -0.384666,0.555399 -0.378229,0.75504 0.0076,0.236782 -0.192063,0.32662 -0.448649,0.20183 -0.386539,-0.187992 -0.946601,-0.775113 -1.049488,-1.100194 -0.07474,-0.236134 0.03343,-0.384603 0.264919,-0.36363 0.109745,0.0099 0.224684,-0.0353 0.430213,-0.169333 0.307509,-0.20054 0.494879,-0.363091 0.998434,-0.866191 0.458859,-0.458441 0.542044,-0.532541 0.657645,-0.585917 0.09379,-0.04329 0.09348,-0.02714 0.0031,-0.162075 -0.115102,-0.171781 -0.468261,-0.785875 -0.538331,-0.936075 -0.06632,-0.142156 -0.0637,-0.27954 0.01024,-0.537165 0.131148,-0.456981 0.244838,-0.489402 0.362162,-0.103282 0.11857,0.39023 0.142592,0.463883 0.196534,0.602635 0.08735,0.224682 0.269027,0.59965 0.336979,0.695497 0.02284,0.03221 0.04123,0.01874 0.185192,-0.135573 0.06681,-0.07174 0.316217,-0.331323 0.554119,-0.576975 0.880333,-0.90901 1.038063,-1.084934 1.382164,-1.541651 0.660585,-0.876728 1.134436,-1.308772 2.403677,-2.191621 0.615643,-0.428223 1.038937,-0.700967 1.22479,-0.789167 0.235589,-0.111806 0.497306,-0.225512 0.548768,-0.238413 0.03189,-0.008 0.03093,0.0038 -0.0073,0.08981 -0.0086,0.01947 -0.03589,0.08193 -0.06054,0.138807 -0.182947,0.422354 -0.227389,0.500488 -0.588141,1.03406 -0.980324,1.449956 -1.498358,2.070427 -2.215675,2.653813 -0.194774,0.158407 -0.227426,0.184078 -0.443746,0.348547 -0.15263,0.116045 -0.358541,0.289082 -0.544418,0.457449 -0.269537,0.244151 -1.632028,1.549148 -1.629927,1.561142 0.0017,0.0099 0.07908,0.05698 0.203852,0.124172 0.31096,0.167447 0.610912,0.287447 0.981305,0.392587 0.179824,0.05104 0.23852,0.07025 0.298746,0.09777 0.133968,0.0612 0.13712,0.147566 0.0077,0.210677 z"
             id="path424" /></g></g></g></g></svg>
