<?xml version="1.0" encoding="UTF-8" standalone="no"?>
<!-- Created with Inkscape (http://www.inkscape.org/) -->

<svg
   width="4.7121439mm"
   height="4.4824262mm"
   viewBox="0 0 4.7121439 4.4824262"
   version="1.1"
   id="svg5"
   xml:space="preserve"
   sodipodi:docname="icon-condition.svg"
   inkscape:version="1.4.1 (1:1.4.1+202503302257+93de688d07)"
   xmlns:inkscape="http://www.inkscape.org/namespaces/inkscape"
   xmlns:sodipodi="http://sodipodi.sourceforge.net/DTD/sodipodi-0.dtd"
   xmlns:xlink="http://www.w3.org/1999/xlink"
   xmlns="http://www.w3.org/2000/svg"
   xmlns:svg="http://www.w3.org/2000/svg"><sodipodi:namedview
     id="namedview1"
     pagecolor="#ffffff"
     bordercolor="#111111"
     borderopacity="1"
     inkscape:showpageshadow="0"
     inkscape:pageopacity="0"
     inkscape:pagecheckerboard="1"
     inkscape:deskcolor="#d1d1d1"
     inkscape:document-units="mm"
     inkscape:zoom="45.254834"
     inkscape:cx="1.7567184"
     inkscape:cy="11.280563"
     inkscape:window-width="3374"
     inkscape:window-height="1371"
     inkscape:window-x="66"
     inkscape:window-y="32"
     inkscape:window-maximized="1"
     inkscape:current-layer="layer1" /><defs
     id="defs2"><linearGradient
       id="swatch24"><stop
         style="stop-color:#000000;stop-opacity:1;"
         offset="0"
         id="stop24" /></linearGradient><linearGradient
       id="swatch23"><stop
         style="stop-color:#ffffff;stop-opacity:1;"
         offset="0"
         id="stop23" /></linearGradient><linearGradient
       id="swatch20"><stop
         style="stop-color:#000000;stop-opacity:1;"
         offset="0"
         id="stop20" /></linearGradient><linearGradient
       id="swatch19"><stop
         style="stop-color:#9f3552;stop-opacity:1;"
         offset="0"
         id="stop19" /></linearGradient><linearGradient
       id="swatch18"><stop
         style="stop-color:#ffffff;stop-opacity:1;"
         offset="0"
         id="stop18" /></linearGradient><linearGradient
       id="swatch4"><stop
         style="stop-color:#000000;stop-opacity:1;"
         offset="0"
         id="stop4" /></linearGradient><linearGradient
       id="swatch449"><stop
         style="stop-color:#edfbfd;stop-opacity:1;"
         offset="0"
         id="stop449" /></linearGradient><linearGradient
       id="swatch426"><stop
         style="stop-color:#9ea7a8;stop-opacity:1;"
         offset="0"
         id="stop426" /></linearGradient><linearGradient
       id="swatch425"><stop
         style="stop-color:#9f3552;stop-opacity:1;"
         offset="0"
         id="stop425" /></linearGradient><linearGradient
       id="swatch263"><stop
         style="stop-color:#030303;stop-opacity:1;"
         offset="0"
         id="stop263" /></linearGradient><linearGradient
       id="swatch262"><stop
         style="stop-color:#edfbfd;stop-opacity:1;"
         offset="0"
         id="stop262" /></linearGradient><linearGradient
       id="swatch15"><stop
         style="stop-color:#2d5e5e;stop-opacity:1;"
         offset="0"
         id="stop15" /></linearGradient><linearGradient
       id="swatch14"><stop
         style="stop-color:#7ab0b0;stop-opacity:1;"
         offset="0"
         id="stop14" /></linearGradient><linearGradient
       id="swatch13"><stop
         style="stop-color:#88ac40;stop-opacity:1;"
         offset="0"
         id="stop13" /></linearGradient><linearGradient
       xlink:href="#swatch425"
       id="linearGradient29"
       gradientUnits="userSpaceOnUse"
       gradientTransform="rotate(101.36629,31.425394,62.853542)"
       x1="27.74177"
       y1="63.340115"
       x2="36.87289"
       y2="63.340115" /><linearGradient
       xlink:href="#swatch425"
       id="linearGradient30"
       gradientUnits="userSpaceOnUse"
       gradientTransform="matrix(1.4385169,-0.38977626,0.36097642,1.9292157,-32.547426,-62.791134)"
       x1="23.983818"
       y1="70.347122"
       x2="28.924053"
       y2="70.347122" /></defs><g
     inkscape:groupmode="layer"
     id="layer1"
     inkscape:label="Condition Swirl"><path
       style="fill:#933780;stroke-width:0.0336126;fill-opacity:1"
       d="m 2.4158864,2.0339659 c -0.06857,0.077309 -0.040671,0.1734413 -0.00235,0.2208352 0.071595,0.088737 0.177811,0.093779 0.2342802,0.2057095 0.049747,0.098485 0.019831,0.2773045 -0.2003315,0.2920941 C 2.2273193,2.7673943 2.0088369,2.5885749 1.9624514,2.3761428 1.9049739,2.1122833 1.9836275,1.8178364 2.2945447,1.6669156 2.6054618,1.5159947 3.0138558,1.5936399 3.2393968,1.8353149 3.4726687,2.084721 3.638043,2.4080748 3.526449,2.8759632 3.414855,3.3438515 2.9247822,3.7438423 2.157405,3.6641802 1.5254868,3.5986356 0.94365152,3.026884 0.97155003,2.1637107 0.9987763,1.3227218 1.6975838,0.8071035 2.354039,0.7032403 3.0326789,0.59601586 3.5109871,0.88710165 3.7903085,1.1092814 3.964086,1.2477655 4.1136624,1.4023838 4.1566866,1.4497776 4.2165171,1.5156585 4.3072713,1.5190198 4.3197079,1.4134761 4.3361782,1.2739835 4.2494575,1.0837358 4.0471093,0.84508581 3.844761,0.60677196 3.2578838,0.14325329 2.2945447,0.2333352 0.81222598,0.37148333 0.30164951,1.6901083 0.40282366,2.5099213 0.50399781,3.3297342 1.0851608,4.2318983 2.4276509,4.2601329 3.2484722,4.2772754 3.8827433,3.7572874 4.0800496,3.069236 4.1892908,2.6884045 4.1550059,2.2067349 3.9240869,1.8316176 3.6138419,1.328436 3.2599005,1.124071 2.7758781,1.0753326 2.388324,1.0363419 2.0206014,1.1482721 1.7785901,1.365746 1.284484,1.8094332 1.2693583,2.6097508 1.7843044,3.0110861 2.0562309,3.2231821 2.380257,3.2621728 2.6293269,3.1851997 2.8004153,3.1324278 2.9496556,3.0413375 3.0373846,2.8712575 3.141584,2.6689092 3.1315002,2.4702583 3.0595689,2.3146317 3.0000746,2.1855591 2.874027,2.0769902 2.7641137,2.0215292 2.5984032,1.9385058 2.4804226,1.9613625 2.4158864,2.0339659 Z"
       id="path1" /></g></svg>
