<?xml version="1.0" encoding="UTF-8" standalone="no"?>
<!-- Created with Inkscape (http://www.inkscape.org/) -->

<svg
   width="4.9901829mm"
   height="4.9869413mm"
   viewBox="0 0 4.9901829 4.9869414"
   version="1.1"
   id="svg5"
   xml:space="preserve"
   xmlns:xlink="http://www.w3.org/1999/xlink"
   xmlns="http://www.w3.org/2000/svg"
   xmlns:svg="http://www.w3.org/2000/svg"><defs
     id="defs2"><linearGradient
       id="swatch354"><stop
         style="stop-color:#000000;stop-opacity:1;"
         offset="0"
         id="stop354" /></linearGradient><linearGradient
       id="swatch353"><stop
         style="stop-color:#11735a;stop-opacity:1;"
         offset="0"
         id="stop353" /></linearGradient><linearGradient
       id="swatch352"><stop
         style="stop-color:#11735a;stop-opacity:1;"
         offset="0"
         id="stop352" /></linearGradient><linearGradient
       id="swatch351"><stop
         style="stop-color:#11735a;stop-opacity:1;"
         offset="0"
         id="stop351" /></linearGradient><linearGradient
       id="swatch328"><stop
         style="stop-color:#9f3552;stop-opacity:1;"
         offset="0"
         id="stop328" /></linearGradient><linearGradient
       id="swatch327"><stop
         style="stop-color:#000000;stop-opacity:1;"
         offset="0"
         id="stop327" /></linearGradient><linearGradient
       id="swatch300"><stop
         style="stop-color:#346646;stop-opacity:1;"
         offset="0"
         id="stop300" /></linearGradient><linearGradient
       id="swatch289"><stop
         style="stop-color:#000000;stop-opacity:1;"
         offset="0"
         id="stop289" /></linearGradient><linearGradient
       id="swatch277"><stop
         style="stop-color:#346646;stop-opacity:1;"
         offset="0"
         id="stop277" /></linearGradient><linearGradient
       id="swatch264"><stop
         style="stop-color:#346646;stop-opacity:1;"
         offset="0"
         id="stop264" /></linearGradient><linearGradient
       id="swatch256"><stop
         style="stop-color:#848484;stop-opacity:1;"
         offset="0"
         id="stop256" /></linearGradient><linearGradient
       id="swatch255"><stop
         style="stop-color:#848484;stop-opacity:1;"
         offset="0"
         id="stop255" /></linearGradient><linearGradient
       id="swatch254"><stop
         style="stop-color:#9ea7a8;stop-opacity:1;"
         offset="0"
         id="stop254" /></linearGradient><linearGradient
       id="swatch253"><stop
         style="stop-color:#346646;stop-opacity:1;"
         offset="0"
         id="stop253" /></linearGradient><linearGradient
       id="swatch241"><stop
         style="stop-color:#11735a;stop-opacity:1;"
         offset="0"
         id="stop241" /></linearGradient><linearGradient
       id="swatch209"><stop
         style="stop-color:#3f57a3;stop-opacity:1;"
         offset="0"
         id="stop209" /></linearGradient><linearGradient
       id="swatch137"><stop
         style="stop-color:#000000;stop-opacity:1;"
         offset="0"
         id="stop137" /></linearGradient><linearGradient
       id="swatch33"><stop
         style="stop-color:#000000;stop-opacity:1;"
         offset="0"
         id="stop33" /></linearGradient><linearGradient
       id="swatch24"><stop
         style="stop-color:#000000;stop-opacity:1;"
         offset="0"
         id="stop24" /></linearGradient><linearGradient
       id="swatch23"><stop
         style="stop-color:#ffffff;stop-opacity:1;"
         offset="0"
         id="stop23" /></linearGradient><linearGradient
       id="swatch20"><stop
         style="stop-color:#000000;stop-opacity:1;"
         offset="0"
         id="stop20" /></linearGradient><linearGradient
       id="swatch19"><stop
         style="stop-color:#9f3552;stop-opacity:1;"
         offset="0"
         id="stop19" /></linearGradient><linearGradient
       id="swatch18"><stop
         style="stop-color:#ffffff;stop-opacity:1;"
         offset="0"
         id="stop18" /></linearGradient><linearGradient
       id="swatch4"><stop
         style="stop-color:#000000;stop-opacity:1;"
         offset="0"
         id="stop4" /></linearGradient><linearGradient
       id="swatch449"><stop
         style="stop-color:#edfbfd;stop-opacity:1;"
         offset="0"
         id="stop449" /></linearGradient><linearGradient
       id="swatch426"><stop
         style="stop-color:#9ea7a8;stop-opacity:1;"
         offset="0"
         id="stop426" /></linearGradient><linearGradient
       id="swatch425"><stop
         style="stop-color:#9f3552;stop-opacity:1;"
         offset="0"
         id="stop425" /></linearGradient><linearGradient
       id="swatch263"><stop
         style="stop-color:#030303;stop-opacity:1;"
         offset="0"
         id="stop263" /></linearGradient><linearGradient
       id="swatch262"><stop
         style="stop-color:#edfbfd;stop-opacity:1;"
         offset="0"
         id="stop262" /></linearGradient><linearGradient
       id="swatch15"><stop
         style="stop-color:#2d5e5e;stop-opacity:1;"
         offset="0"
         id="stop15" /></linearGradient><linearGradient
       id="swatch14"><stop
         style="stop-color:#7ab0b0;stop-opacity:1;"
         offset="0"
         id="stop14" /></linearGradient><linearGradient
       id="swatch13"><stop
         style="stop-color:#88ac40;stop-opacity:1;"
         offset="0"
         id="stop13" /></linearGradient><linearGradient
       xlink:href="#swatch209"
       id="linearGradient327"
       x1="47.137291"
       y1="71.415276"
       x2="50.71608"
       y2="71.415276"
       gradientUnits="userSpaceOnUse"
       gradientTransform="matrix(1.0999927,0,0,1.0999927,-5.4650078,-7.0027398)" /><linearGradient
       xlink:href="#swatch209"
       id="linearGradient328"
       x1="70.939377"
       y1="74.056404"
       x2="81.015549"
       y2="74.056404"
       gradientUnits="userSpaceOnUse" /></defs><g
     id="layer2"
     transform="translate(-37.026724,-49.293306)"><g
       id="g64"
       transform="translate(0,-15.934981)"><g
         id="g491"
         transform="translate(-8.8321834,-3.8317916)"><g
           id="g419"><path
             style="display:inline;fill:url(#linearGradient327);stroke-width:0.0219999;stroke-dasharray:none"
             d="m 48.421269,69.353546 -0.05858,1.66e-4 c -0.07021,1.66e-4 -0.09802,0.0086 -0.174445,0.05241 -0.0297,0.01705 -0.156819,0.08826 -0.28247,0.158244 -0.125652,0.06998 -0.246911,0.138523 -0.269463,0.152317 -0.0442,0.02703 -0.10868,0.06416 -0.483278,0.278261 -0.304284,0.173914 -0.396102,0.225947 -0.506707,0.287186 -0.113796,0.06301 -0.165406,0.09872 -0.205999,0.142569 -0.06055,0.0654 -0.05439,-0.0618 -0.05455,1.127621 -8.3e-5,0.959028 6.62e-4,1.046428 0.0096,1.065131 0.01574,0.03317 0.09196,0.109306 0.14751,0.147352 0.02843,0.01948 0.100265,0.06099 0.159617,0.09226 0.05934,0.03126 0.215979,0.118801 0.348075,0.194522 0.554985,0.318137 1.150037,0.656814 1.18476,0.67431 0.0137,0.0069 0.03874,0.01645 0.05565,0.0212 0.02174,0.0062 0.0461,0.0077 0.0831,0.0055 0.0497,-0.003 0.05521,-0.0048 0.108372,-0.03434 0.03081,-0.01713 0.08633,-0.0478 0.123382,-0.06818 0.0785,-0.04315 0.414826,-0.233625 0.521352,-0.295252 0.04027,-0.0233 0.114082,-0.06551 0.164022,-0.09382 0.04993,-0.02831 0.135609,-0.07723 0.19038,-0.108724 0.182091,-0.104696 0.576097,-0.327872 0.659162,-0.373371 0.06932,-0.03798 0.08783,-0.054 0.136243,-0.117959 l 0.04533,-0.0599 -0.0016,-1.043781 -0.0016,-1.043781 -0.01633,-0.03487 c -0.02681,-0.05726 -0.09014,-0.113609 -0.191984,-0.170807 -0.133366,-0.07491 -0.282111,-0.159351 -0.547358,-0.310766 -0.135318,-0.07724 -0.292162,-0.166452 -0.348545,-0.198242 -0.05639,-0.03179 -0.168414,-0.09516 -0.24896,-0.140807 -0.159709,-0.0905 -0.356482,-0.200702 -0.471561,-0.264063 z"
             id="path137-32" /><path
             style="display:inline;fill:url(#linearGradient328);fill-opacity:1;stroke:#ffffff;stroke-width:1.0096;stroke-dasharray:none;stroke-opacity:1;paint-order:stroke fill markers"
             d="m 76.489737,76.637381 c -0.297228,0.144918 -0.631061,0.190857 -0.800109,0.110108 -0.179454,-0.08572 -0.860003,-0.480412 -1.011748,-0.586772 -0.05312,-0.03723 -0.04784,-0.04045 -0.105071,0.06419 -0.06414,0.117268 -0.155424,0.221738 -0.463391,0.530401 -0.369084,0.370244 -0.684112,0.705424 -0.765723,0.815494 -0.328174,0.442623 -0.384666,0.555399 -0.378229,0.75504 0.0076,0.236782 -0.192063,0.32662 -0.448649,0.20183 -0.386539,-0.187992 -0.946601,-0.775113 -1.049488,-1.100194 -0.07474,-0.236134 0.03343,-0.384603 0.264919,-0.36363 0.109745,0.0099 0.224684,-0.0353 0.430213,-0.169333 0.307509,-0.20054 0.494879,-0.363091 0.998434,-0.866191 0.458859,-0.458441 0.542044,-0.532541 0.657645,-0.585917 0.09379,-0.04329 0.09348,-0.02714 0.0031,-0.162075 -0.115102,-0.171781 -0.468261,-0.785875 -0.538331,-0.936075 -0.06632,-0.142156 -0.0637,-0.27954 0.01024,-0.537165 0.131148,-0.456981 0.244838,-0.489402 0.362162,-0.103282 0.11857,0.39023 0.142592,0.463883 0.196534,0.602635 0.08735,0.224682 0.269027,0.59965 0.336979,0.695497 0.02284,0.03221 0.04123,0.01874 0.185192,-0.135573 0.06681,-0.07174 0.316217,-0.331323 0.554119,-0.576975 0.880333,-0.90901 1.038063,-1.084934 1.382164,-1.541651 0.660585,-0.876728 1.134436,-1.308772 2.403677,-2.191621 0.615643,-0.428223 1.038937,-0.700967 1.22479,-0.789167 0.235589,-0.111806 0.497306,-0.225512 0.548768,-0.238413 0.03189,-0.008 0.03093,0.0038 -0.0073,0.08981 -0.0086,0.01947 -0.03589,0.08193 -0.06054,0.138807 -0.182947,0.422354 -0.227389,0.500488 -0.588141,1.03406 -0.980324,1.449956 -1.498358,2.070427 -2.215675,2.653813 -0.194774,0.158407 -0.227426,0.184078 -0.443746,0.348547 -0.15263,0.116045 -0.358541,0.289082 -0.544418,0.457449 -0.269537,0.244151 -1.632028,1.549148 -1.629927,1.561142 0.0017,0.0099 0.07908,0.05698 0.203852,0.124172 0.31096,0.167447 0.610912,0.287447 0.981305,0.392587 0.179824,0.05104 0.23852,0.07025 0.298746,0.09777 0.133968,0.0612 0.13712,0.147566 0.0077,0.210677 z"
             id="path424-1"
             transform="matrix(0.49524581,0,0,0.49524581,10.726479,34.877426)" /></g></g></g></g></svg>
