<?xml version="1.0" encoding="UTF-8" standalone="no"?>
<!-- Created with Inkscape (http://www.inkscape.org/) -->

<svg
   width="32.826969mm"
   height="20.809568mm"
   viewBox="0 0 32.826969 20.809569"
   version="1.1"
   id="svg5"
   xml:space="preserve"
   xmlns:xlink="http://www.w3.org/1999/xlink"
   xmlns="http://www.w3.org/2000/svg"
   xmlns:svg="http://www.w3.org/2000/svg"><defs
     id="defs2"><linearGradient
       id="swatch354"><stop
         style="stop-color:#000000;stop-opacity:1;"
         offset="0"
         id="stop354" /></linearGradient><linearGradient
       id="swatch353"><stop
         style="stop-color:#11735a;stop-opacity:1;"
         offset="0"
         id="stop353" /></linearGradient><linearGradient
       id="swatch352"><stop
         style="stop-color:#11735a;stop-opacity:1;"
         offset="0"
         id="stop352" /></linearGradient><linearGradient
       id="swatch351"><stop
         style="stop-color:#11735a;stop-opacity:1;"
         offset="0"
         id="stop351" /></linearGradient><linearGradient
       id="swatch328"><stop
         style="stop-color:#9f3552;stop-opacity:1;"
         offset="0"
         id="stop328" /></linearGradient><linearGradient
       id="swatch327"><stop
         style="stop-color:#000000;stop-opacity:1;"
         offset="0"
         id="stop327" /></linearGradient><linearGradient
       id="swatch300"><stop
         style="stop-color:#346646;stop-opacity:1;"
         offset="0"
         id="stop300" /></linearGradient><linearGradient
       id="swatch289"><stop
         style="stop-color:#000000;stop-opacity:1;"
         offset="0"
         id="stop289" /></linearGradient><linearGradient
       id="swatch277"><stop
         style="stop-color:#346646;stop-opacity:1;"
         offset="0"
         id="stop277" /></linearGradient><linearGradient
       id="swatch264"><stop
         style="stop-color:#346646;stop-opacity:1;"
         offset="0"
         id="stop264" /></linearGradient><linearGradient
       id="swatch256"><stop
         style="stop-color:#848484;stop-opacity:1;"
         offset="0"
         id="stop256" /></linearGradient><linearGradient
       id="swatch255"><stop
         style="stop-color:#848484;stop-opacity:1;"
         offset="0"
         id="stop255" /></linearGradient><linearGradient
       id="swatch254"><stop
         style="stop-color:#9ea7a8;stop-opacity:1;"
         offset="0"
         id="stop254" /></linearGradient><linearGradient
       id="swatch253"><stop
         style="stop-color:#346646;stop-opacity:1;"
         offset="0"
         id="stop253" /></linearGradient><linearGradient
       id="swatch241"><stop
         style="stop-color:#11735a;stop-opacity:1;"
         offset="0"
         id="stop241" /></linearGradient><linearGradient
       id="swatch209"><stop
         style="stop-color:#3f57a3;stop-opacity:1;"
         offset="0"
         id="stop209" /></linearGradient><linearGradient
       id="swatch137"><stop
         style="stop-color:#000000;stop-opacity:1;"
         offset="0"
         id="stop137" /></linearGradient><linearGradient
       id="swatch33"><stop
         style="stop-color:#000000;stop-opacity:1;"
         offset="0"
         id="stop33" /></linearGradient><linearGradient
       id="swatch24"><stop
         style="stop-color:#000000;stop-opacity:1;"
         offset="0"
         id="stop24" /></linearGradient><linearGradient
       id="swatch23"><stop
         style="stop-color:#ffffff;stop-opacity:1;"
         offset="0"
         id="stop23" /></linearGradient><linearGradient
       id="swatch20"><stop
         style="stop-color:#000000;stop-opacity:1;"
         offset="0"
         id="stop20" /></linearGradient><linearGradient
       id="swatch19"><stop
         style="stop-color:#9f3552;stop-opacity:1;"
         offset="0"
         id="stop19" /></linearGradient><linearGradient
       id="swatch18"><stop
         style="stop-color:#ffffff;stop-opacity:1;"
         offset="0"
         id="stop18" /></linearGradient><linearGradient
       id="swatch4"><stop
         style="stop-color:#000000;stop-opacity:1;"
         offset="0"
         id="stop4" /></linearGradient><linearGradient
       id="swatch449"><stop
         style="stop-color:#edfbfd;stop-opacity:1;"
         offset="0"
         id="stop449" /></linearGradient><linearGradient
       id="swatch426"><stop
         style="stop-color:#9ea7a8;stop-opacity:1;"
         offset="0"
         id="stop426" /></linearGradient><linearGradient
       id="swatch425"><stop
         style="stop-color:#9f3552;stop-opacity:1;"
         offset="0"
         id="stop425" /></linearGradient><linearGradient
       id="swatch263"><stop
         style="stop-color:#030303;stop-opacity:1;"
         offset="0"
         id="stop263" /></linearGradient><linearGradient
       id="swatch262"><stop
         style="stop-color:#edfbfd;stop-opacity:1;"
         offset="0"
         id="stop262" /></linearGradient><linearGradient
       id="swatch15"><stop
         style="stop-color:#2d5e5e;stop-opacity:1;"
         offset="0"
         id="stop15" /></linearGradient><linearGradient
       id="swatch14"><stop
         style="stop-color:#7ab0b0;stop-opacity:1;"
         offset="0"
         id="stop14" /></linearGradient><linearGradient
       id="swatch13"><stop
         style="stop-color:#88ac40;stop-opacity:1;"
         offset="0"
         id="stop13" /></linearGradient><linearGradient
       xlink:href="#swatch254"
       id="linearGradient415"
       gradientUnits="userSpaceOnUse"
       gradientTransform="matrix(0.97432915,0,0,0.97432915,163.33894,-32.519361)"
       x1="91.359772"
       y1="69.382996"
       x2="108.33615"
       y2="69.382996" /><linearGradient
       xlink:href="#swatch425"
       id="linearGradient416"
       gradientUnits="userSpaceOnUse"
       x1="74.014999"
       y1="68.465508"
       x2="92.633102"
       y2="68.465508" /></defs><g
     id="layer5"
     transform="translate(-316.97052,-24.509912)"><g
       id="g398"><g
         id="g408-3-8"
         transform="translate(80.903514,0.99321342)"><path
           style="display:inline;fill:url(#linearGradient415);fill-opacity:1;stroke-width:0.0930268"
           d="m 260.90649,25.83876 -0.24614,6.98e-4 c -0.29501,6.96e-4 -0.41183,0.03588 -0.73296,0.220172 -0.12482,0.07163 -0.65891,0.370857 -1.18686,0.664897 -0.52795,0.29404 -1.03744,0.582039 -1.13221,0.639995 -0.18576,0.113609 -0.45664,0.26958 -2.03061,1.169181 -1.27852,0.730741 -1.66431,0.94937 -2.12905,1.206678 -0.47814,0.264725 -0.69499,0.41481 -0.86554,0.599036 -0.25445,0.274821 -0.22857,-0.259656 -0.22922,4.737965 -3.5e-4,4.029574 0.003,4.396811 0.04,4.475393 0.0662,0.139352 0.38638,0.459263 0.6198,0.619131 0.1195,0.08184 0.4213,0.256287 0.67066,0.387662 0.24936,0.131372 0.9075,0.499171 1.46254,0.817333 2.33189,1.336726 4.83213,2.759761 4.97802,2.833275 0.0575,0.02898 0.16276,0.06908 0.23383,0.08907 0.0913,0.02571 0.19372,0.03243 0.3492,0.02288 0.20879,-0.01281 0.23199,-0.02013 0.45534,-0.144315 0.12944,-0.07195 0.36275,-0.20088 0.51841,-0.286468 0.32983,-0.181319 1.74299,-0.981624 2.19061,-1.24057 0.16921,-0.0979 0.47934,-0.275273 0.68917,-0.394196 0.20983,-0.118922 0.5698,-0.324518 0.79993,-0.456835 0.76511,-0.4399 2.42062,-1.377636 2.76964,-1.568811 0.29126,-0.159534 0.36903,-0.226871 0.57244,-0.495631 l 0.19047,-0.25166 -0.006,-4.385691 -0.006,-4.385692 -0.0686,-0.146525 c -0.11264,-0.240566 -0.37877,-0.477347 -0.80667,-0.717681 -0.56036,-0.314742 -1.18535,-0.669551 -2.29984,-1.305758 -0.56858,-0.324563 -1.22759,-0.699383 -1.4645,-0.832956 -0.2369,-0.133574 -0.70764,-0.39983 -1.04607,-0.591634 -0.67106,-0.380309 -1.49785,-0.843293 -1.98137,-1.109521 z"
           id="path137-9-5-4-5-8-5" /><g
           id="g265-6-0-0-7-2-3-8"
           transform="matrix(0.5382034,0,0,0.5382034,216.04904,-0.373048)"
           style="stroke-width:2.84212;stroke-dasharray:none"><path
             style="fill:none;fill-opacity:1;stroke:#fdfdfd;stroke-width:2.84212;stroke-linecap:round;stroke-linejoin:round;stroke-dasharray:none;stroke-dashoffset:0;stroke-opacity:1;paint-order:stroke fill markers"
             d="m 82.821255,62.128703 c 0,0 2.6852,3.239121 4.239693,7.497837"
             id="path264-2-6-3-9-0-7-4" /><use
             x="0"
             y="0"
             xlink:href="#path264-2-6-3-9-0-7-4"
             id="use265-5-8-3-3-7-9-3"
             transform="matrix(-1,0,0,1,165.64251,0)"
             style="stroke-width:2.84212;stroke-dasharray:none" /></g><g
           id="g252-8-2-3-7"
           transform="translate(162.05199,-34.544028)"><path
             style="display:inline;fill:url(#linearGradient416);fill-opacity:1;stroke-width:0.104711"
             d="m 83.642334,58.060726 -0.27705,7.84e-4 c -0.33207,7.84e-4 -0.46358,0.0404 -0.82503,0.247827 -0.14049,0.08063 -0.74167,0.417436 -1.33594,0.748409 -0.59426,0.330973 -1.16775,0.655144 -1.27441,0.72038 -0.20909,0.127877 -0.514,0.303438 -2.28565,1.316031 -1.43911,0.822521 -1.87336,1.068611 -2.39646,1.358237 -0.5382,0.297976 -0.78229,0.466911 -0.97427,0.674276 -0.2864,0.309339 -0.25727,-0.292268 -0.258,5.333061 -3.9e-4,4.535695 0.003,4.949057 0.0451,5.037508 0.0744,0.156855 0.43492,0.516947 0.69765,0.696895 0.1345,0.09212 0.47422,0.288477 0.7549,0.436353 0.28068,0.147873 1.02147,0.561867 1.64622,0.919991 2.62479,1.50462 5.43907,3.106391 5.60328,3.189137 0.0648,0.03262 0.18321,0.07775 0.2632,0.100267 0.10278,0.02894 0.21805,0.0365 0.39306,0.02576 0.23503,-0.01443 0.26113,-0.02266 0.51254,-0.162442 0.14569,-0.081 0.4083,-0.22611 0.58353,-0.322449 0.37125,-0.204092 1.96191,-1.104917 2.46573,-1.396386 0.19047,-0.110191 0.53955,-0.309848 0.77573,-0.443708 0.23618,-0.13386 0.64136,-0.365279 0.9004,-0.514214 0.8612,-0.495152 2.72465,-1.550669 3.1175,-1.765856 0.32784,-0.179572 0.41538,-0.255366 0.64435,-0.557883 l 0.21439,-0.28327 -0.007,-4.936538 -0.007,-4.936542 -0.0772,-0.164928 c -0.12679,-0.270783 -0.42634,-0.537303 -0.90798,-0.807823 -0.63075,-0.354274 -1.33424,-0.753647 -2.58872,-1.469761 -0.63998,-0.36533 -1.38177,-0.787228 -1.64843,-0.937578 -0.26666,-0.150351 -0.79651,-0.450049 -1.17745,-0.665945 -0.75534,-0.428077 -1.68598,-0.949211 -2.23024,-1.248878 z"
             id="path137-9-1-0-7-1" /><path
             style="display:none;fill:#ffffff;fill-opacity:1;stroke:none;stroke-width:0.022;stroke-linecap:square;stroke-linejoin:bevel;stroke-dasharray:none;stroke-dashoffset:0;stroke-opacity:1;paint-order:stroke fill markers"
             id="path251-3-2-1-8-3"
             d="m 104.70059,72.184661 c -0.43674,0.756449 -9.268518,0.756449 -9.705255,0 -0.436736,-0.75645 3.979154,-8.404996 4.852626,-8.404996 0.873469,0 5.289359,7.648546 4.852629,8.404996 z"
             transform="matrix(0.78135937,0,0,0.8867254,5.3069097,7.9324633)" /><g
             id="g265-8-9-9"
             transform="matrix(0.74310723,0,0,-0.74310723,21.778977,117.94882)"
             style="stroke-width:2.84212;stroke-dasharray:none"><path
               style="fill:none;fill-opacity:1;stroke:#fdfdfd;stroke-width:2.84212;stroke-linecap:round;stroke-linejoin:round;stroke-dasharray:none;stroke-dashoffset:0;stroke-opacity:1;paint-order:stroke fill markers"
               d="m 82.821255,62.128703 c 0,0 0.959399,4.752334 4.56118,7.497837"
               id="path264-9-6-3" /><use
               x="0"
               y="0"
               xlink:href="#path264-9-6-3"
               id="use265-3-2-2"
               transform="matrix(-1,0,0,1,165.64251,0)"
               style="stroke-width:2.84212;stroke-dasharray:none" /></g></g></g></g></g></svg>
