<?xml version="1.0" encoding="UTF-8" standalone="no"?>
<!-- Created with Inkscape (http://www.inkscape.org/) -->

<svg
   width="4.7121439mm"
   height="4.4824262mm"
   viewBox="0 0 4.7121439 4.4824262"
   version="1.1"
   id="svg5"
   xml:space="preserve"
   xmlns:xlink="http://www.w3.org/1999/xlink"
   xmlns="http://www.w3.org/2000/svg"
   xmlns:svg="http://www.w3.org/2000/svg"><defs
     id="defs2"><linearGradient
       id="swatch24"><stop
         style="stop-color:#000000;stop-opacity:1;"
         offset="0"
         id="stop24" /></linearGradient><linearGradient
       id="swatch23"><stop
         style="stop-color:#ffffff;stop-opacity:1;"
         offset="0"
         id="stop23" /></linearGradient><linearGradient
       id="swatch20"><stop
         style="stop-color:#000000;stop-opacity:1;"
         offset="0"
         id="stop20" /></linearGradient><linearGradient
       id="swatch19"><stop
         style="stop-color:#9f3552;stop-opacity:1;"
         offset="0"
         id="stop19" /></linearGradient><linearGradient
       id="swatch18"><stop
         style="stop-color:#ffffff;stop-opacity:1;"
         offset="0"
         id="stop18" /></linearGradient><linearGradient
       id="swatch4"><stop
         style="stop-color:#000000;stop-opacity:1;"
         offset="0"
         id="stop4" /></linearGradient><linearGradient
       id="swatch449"><stop
         style="stop-color:#edfbfd;stop-opacity:1;"
         offset="0"
         id="stop449" /></linearGradient><linearGradient
       id="swatch426"><stop
         style="stop-color:#9ea7a8;stop-opacity:1;"
         offset="0"
         id="stop426" /></linearGradient><linearGradient
       id="swatch425"><stop
         style="stop-color:#9f3552;stop-opacity:1;"
         offset="0"
         id="stop425" /></linearGradient><linearGradient
       id="swatch263"><stop
         style="stop-color:#030303;stop-opacity:1;"
         offset="0"
         id="stop263" /></linearGradient><linearGradient
       id="swatch262"><stop
         style="stop-color:#edfbfd;stop-opacity:1;"
         offset="0"
         id="stop262" /></linearGradient><linearGradient
       id="swatch15"><stop
         style="stop-color:#2d5e5e;stop-opacity:1;"
         offset="0"
         id="stop15" /></linearGradient><linearGradient
       id="swatch14"><stop
         style="stop-color:#7ab0b0;stop-opacity:1;"
         offset="0"
         id="stop14" /></linearGradient><linearGradient
       id="swatch13"><stop
         style="stop-color:#88ac40;stop-opacity:1;"
         offset="0"
         id="stop13" /></linearGradient><linearGradient
       xlink:href="#swatch425"
       id="linearGradient29"
       gradientUnits="userSpaceOnUse"
       gradientTransform="rotate(101.36629,31.425394,62.853542)"
       x1="27.74177"
       y1="63.340115"
       x2="36.87289"
       y2="63.340115" /><linearGradient
       xlink:href="#swatch425"
       id="linearGradient30"
       gradientUnits="userSpaceOnUse"
       gradientTransform="matrix(1.4385169,-0.38977626,0.36097642,1.9292157,-32.547426,-62.791134)"
       x1="23.983818"
       y1="70.347122"
       x2="28.924053"
       y2="70.347122" /></defs><g
     id="layer2"
     transform="translate(-15.330542,-49.253035)"><g
       id="g64"
       transform="translate(0,-15.934981)"><g
         id="g491"
         transform="translate(-8.8321834,-3.8317916)"><g
           id="g27"
           transform="matrix(0.50394225,0,0,0.50394225,10.861913,39.38317)"
           style="stroke-width:0.90864;stroke-dasharray:none"><path
             id="path26"
             style="fill:url(#linearGradient29);stroke-width:0.90864;stroke-linecap:square;stroke-linejoin:round;stroke-dasharray:none;paint-order:stroke fill markers"
             d="m 33.709566,67.632012 c -0.196791,0.123832 -2.065907,-0.626632 -2.276156,-0.546856 -0.210251,0.07977 -2.660298,0.646458 -2.904025,0.618116 -0.243727,-0.02834 0.0599,-1.405517 -0.142075,-1.529961 -0.201972,-0.124443 -0.570923,-0.009 -0.732491,-0.185446 -0.161563,-0.176474 0.603062,-0.695237 0.529197,-0.909679 -0.07386,-0.214444 -1.798351,-0.420111 -1.790463,-0.64658 0.0079,-0.226465 1.283181,-0.897487 1.360425,-1.129623 0.07725,-0.232136 -0.875533,-2.244879 -0.722839,-2.411337 0.152695,-0.166453 1.620654,0.06321 1.800204,-0.0982 0.179553,-0.16141 1.233013,-1.426407 1.449218,-1.504425 0.216204,-0.07801 0.163525,1.298193 0.39109,1.29044 0.227566,-0.0078 2.100227,-1.260622 2.316756,-1.148145 0.21653,0.112466 -0.265517,1.99053 -0.08658,2.14409 0.178947,0.153559 1.878514,-0.323308 1.963849,-0.106685 0.08533,0.216626 -0.731101,1.719014 -0.712572,1.950144 0.01853,0.23113 1.615474,1.41441 1.590699,1.644056 -0.02478,0.229646 -1.47614,0.698237 -1.596285,0.898435 -0.120149,0.200192 -0.241167,1.547808 -0.437948,1.671662 z" /><path
             style="fill:url(#linearGradient30);stroke:#ffffff;stroke-width:0.939182;stroke-linecap:butt;stroke-dasharray:none;stroke-opacity:1;paint-order:stroke fill markers"
             d="m 31.365185,65.973501 c -1.122772,0.223822 -2.10981,0.189833 -2.89263,-0.09964 -0.254897,-0.09425 -0.562527,-0.250656 -0.711471,-0.361716 l -0.05963,-0.04446 0.02748,-0.01637 c 0.01511,-0.0089 0.08588,-0.03285 0.157207,-0.05316 0.497483,-0.141181 0.959757,-0.453675 1.534943,-1.037835 l 0.144115,-0.146365 0.06974,0.01154 c 0.244261,0.04041 0.556385,0.06817 0.697618,0.06201 0.09472,-0.0043 0.382247,-0.06803 0.379202,-0.08431 -0.0013,-0.0071 -0.04505,-0.02204 -0.09716,-0.03316 -0.127753,-0.02725 -0.417853,-0.124488 -0.523711,-0.175567 -0.142687,-0.06885 -0.30252,-0.170503 -0.414121,-0.263385 l -0.105579,-0.08785 0.06479,-0.920016 c 0.03564,-0.506012 0.0688,-0.942091 0.07369,-0.969068 0.01097,-0.06015 0.03957,-0.102029 0.221617,-0.323895 0.07867,-0.0959 0.151665,-0.187952 0.16218,-0.204585 l 0.01911,-0.03024 -0.03815,0.01848 c -0.02095,0.01029 -0.09381,0.04581 -0.161863,0.0793 -0.08204,0.04048 -0.175344,0.07496 -0.277033,0.102612 -0.309081,0.08403 -0.53554,0.230327 -1.204407,0.777983 -0.05142,0.04214 -0.09642,0.07413 -0.09994,0.07111 -0.01729,-0.01477 0.140239,-0.530732 0.236665,-0.775027 0.08642,-0.218919 0.260216,-0.535596 0.438374,-0.798733 0.08342,-0.123239 0.835136,-1.026668 0.992848,-1.193249 0.07535,-0.07959 0.185808,-0.154117 0.281492,-0.189888 0.09002,-0.03365 0.171678,-0.02066 0.243389,0.03877 0.101414,0.08403 0.515554,0.696031 0.635001,0.938353 0.03001,0.06085 0.08998,0.198307 0.133253,0.305415 0.07557,0.186995 0.08015,0.202669 0.115471,0.393875 0.02024,0.109531 0.06452,0.424729 0.09832,0.700482 0.03382,0.275753 0.06464,0.517947 0.06843,0.538228 0.0055,0.02939 0.02138,-0.01505 0.07812,-0.218579 0.03917,-0.140502 0.08049,-0.279918 0.09186,-0.30983 l 0.02063,-0.05437 0.0785,0.132075 c 0.110538,0.185935 0.59414,1.017721 0.784194,1.348768 l 0.159283,0.277456 0.14597,0.05216 c 0.50797,0.181501 0.963983,0.230104 1.600353,0.170573 0.249039,-0.02328 0.281192,-0.02484 0.283304,-0.01353 0.0025,0.01331 -0.190327,0.314474 -0.273494,0.427076 -0.546129,0.73941 -1.334166,1.327636 -2.263467,1.689551 -0.219556,0.08551 -0.693482,0.224887 -0.914484,0.268947 z"
             id="path27" /></g></g></g></g></svg>
